<svg width="117" height="36" viewBox="0 0 117 36" fill="none" xmlns="http://www.w3.org/2000/svg">
<path d="M58.3698 12.9074C57.4154 12.9074 56.5973 13.7332 56.5973 14.6967V28.0477C56.5973 29.0111 57.4154 29.837 58.3698 29.837C59.3243 29.837 60.1424 29.0111 60.1424 28.0477V14.6967C60.1424 13.7332 59.3243 12.9074 58.3698 12.9074ZM58.3698 6.30068C57.279 6.30068 56.3246 7.26415 56.3246 8.36526C56.3246 9.46638 57.279 10.4299 58.3698 10.4299C59.4606 10.4299 60.4151 9.46638 60.4151 8.36526C60.4151 7.12651 59.4606 6.30068 58.3698 6.30068ZM75.8225 14.6967C75.8225 13.5956 74.8681 13.1826 74.1863 13.1826H65.3236C64.5055 13.1826 63.6875 13.8708 63.6875 14.6967C63.6875 15.5225 64.3692 16.3483 65.3236 16.3483H71.1866L63.5511 26.8089C63.2784 27.0842 63.1421 27.4971 63.1421 27.91C63.1421 29.0111 64.0965 29.6993 64.7782 29.6993H74.1863C75.0044 29.6993 75.6862 29.0111 75.6862 28.0477C75.6862 27.2218 75.0044 26.396 74.1863 26.396H67.7779L75.1408 16.0731C75.6862 15.6601 75.8225 15.1096 75.8225 14.6967ZM49.7799 23.0926C49.7799 25.2949 48.8254 26.6713 46.6438 26.6713C44.4622 26.6713 43.5078 25.2949 43.5078 23.0926V16.2107H46.7802C49.3708 16.2107 49.7799 17.7247 49.7799 19.2388V23.0926ZM53.3249 19.2388C53.3249 15.5225 51.416 13.045 46.7802 13.045H43.5078V7.95235C43.5078 6.98888 42.6897 6.16304 41.7353 6.16304C40.7808 6.16304 39.9627 6.98888 39.9627 7.95235V22.955C39.9627 26.6713 42.008 29.6993 46.6438 29.6993C51.2797 29.6993 53.3249 26.6713 53.3249 22.955V19.2388ZM89.8665 12.9074C88.912 12.9074 88.0939 13.7332 88.0939 14.6967V23.0926C88.0939 25.2949 87.1395 26.6713 84.9579 26.6713C82.7763 26.6713 81.8219 25.2949 81.8219 23.0926V14.6967C81.8219 13.7332 81.0038 12.9074 80.0493 12.9074C79.0949 12.9074 78.2768 13.7332 78.2768 14.6967V23.0926C78.2768 26.8089 80.322 29.837 84.9579 29.837C89.5938 29.837 91.639 26.8089 91.639 23.0926V14.6967C91.639 13.7332 90.8209 12.9074 89.8665 12.9074ZM117 19.6517C117 15.9354 115.364 12.9074 110.592 12.9074C108.546 12.9074 107.046 13.5956 105.956 14.559C105.001 13.5956 103.501 12.9074 101.32 12.9074C96.6839 12.9074 94.9114 15.9354 94.9114 19.6517V28.0477C94.9114 29.0111 95.7295 29.837 96.6839 29.837C97.6384 29.837 98.4564 29.0111 98.4564 28.0477V19.6517C98.4564 17.4494 99.1382 16.0731 101.32 16.0731C103.501 16.0731 104.183 17.4494 104.183 19.6517V28.0477C104.183 29.0111 105.001 29.837 105.956 29.837C106.91 29.837 107.728 29.0111 107.728 28.0477V19.6517C107.728 17.4494 108.41 16.0731 110.592 16.0731C112.773 16.0731 113.455 17.4494 113.455 19.6517V28.0477C113.455 29.0111 114.273 29.837 115.227 29.837C116.182 29.837 117 29.0111 117 28.0477V19.6517ZM7.37532 12.9074C8.60246 13.8708 10.375 13.5956 11.3294 12.2192L14.6018 7.67707C15.5563 6.43832 15.2836 4.64901 13.9201 3.68554C12.6929 2.72206 10.9204 2.99734 9.96595 4.37373L6.69358 8.91582C5.87548 10.2922 6.14818 12.0815 7.37532 12.9074ZM22.3737 6.43832C21.1466 5.47485 19.374 5.75012 18.4196 7.12651L5.19374 25.4325C4.2393 26.6713 4.51199 28.4606 5.87548 29.424C7.10262 30.3875 8.87516 30.1122 9.8296 28.7358L23.0555 10.4299C24.0099 9.1911 23.7372 7.40179 22.3737 6.43832ZM6.14818 5.06193C7.10262 3.82318 6.82992 2.03387 5.46643 1.0704C4.23929 0.106922 2.46676 0.3822 1.51231 1.75859C0.557872 2.99734 0.83057 4.78665 2.19406 5.75012C3.4212 6.57596 5.19374 6.30068 6.14818 5.06193ZM26.1915 30.2499C24.9643 29.2864 23.1918 29.5617 22.2374 30.9381C21.2829 32.1768 21.5556 33.9661 22.9191 34.9296C24.1462 35.8931 25.9188 35.6178 26.8732 34.2414C27.6913 32.865 27.4186 31.0757 26.1915 30.2499ZM21.0102 22.955C19.7831 21.9915 18.0105 22.2668 17.0561 23.6432L13.7837 28.1853C12.8293 29.424 13.102 31.2133 14.4655 32.0392C15.6926 33.0027 17.4651 32.7274 18.4196 31.351L21.692 26.8089C22.5101 25.5701 22.2374 23.7808 21.0102 22.955Z" fill="#05C0C7"/>
</svg>
