<svg width="23" height="23" viewBox="0 0 23 23" fill="none" xmlns="http://www.w3.org/2000/svg">
<path d="M2.0247 1.98995C2.57143 1.44322 3.45786 1.44322 4.0046 1.98995L21.1166 19.1019C21.6633 19.6487 21.6633 20.5351 21.1166 21.0818L20.9752 21.2233C20.4284 21.77 19.542 21.77 18.9953 21.2233L1.88328 4.11127C1.33654 3.56453 1.33654 2.6781 1.88328 2.13137L2.0247 1.98995Z" fill="#9EDC15"/>
<path d="M1.8835 20.9899C1.33677 20.4432 1.33677 19.5568 1.8835 19.0101L18.9955 1.89807C19.5422 1.35133 20.4287 1.35133 20.9754 1.89807L21.1168 2.03949C21.6635 2.58622 21.6635 3.47265 21.1168 4.01939L4.00482 21.1314C3.45809 21.6781 2.57166 21.6781 2.02493 21.1314L1.8835 20.9899Z" fill="#9EDC15"/>
</svg>
