<svg width="26" height="19" viewBox="0 0 26 19" fill="none" xmlns="http://www.w3.org/2000/svg">
<path fill-rule="evenodd" clip-rule="evenodd" d="M1.08652 0.833374C1.51276 0.520037 2.03305 0.333374 2.59978 0.333374H23.3997C23.9664 0.333374 24.4867 0.520037 24.9129 0.833374L24.9028 0.843774L13.5278 11.8021C13.2764 12.0443 12.7231 12.0443 12.4716 11.8021L1.09659 0.843774L1.08652 0.833374ZM0 3.00001C0 2.58871 0.0931126 2.20138 0.25389 1.85418L11.5781 12.7708C12.3735 13.5368 13.6264 13.5369 14.4219 12.7708L25.7461 1.85418C25.9069 2.20138 26 2.58871 26 3.00001V15.6667C26 17.144 24.8404 18.3333 23.4 18.3333H2.6C1.1596 18.3333 0 17.144 0 15.6667V3.00001Z" fill=""/>
</svg>
