<svg width="26" height="19" viewBox="0 0 26 19" fill="none" xmlns="http://www.w3.org/2000/svg">
<path fill-rule="evenodd" clip-rule="evenodd" d="M1.08652 0.833252C1.51276 0.519915 2.03305 0.333252 2.59978 0.333252H23.3997C23.9664 0.333252 24.4867 0.519915 24.9129 0.833252L24.9028 0.843652L13.5278 11.802C13.2764 12.0442 12.7231 12.0442 12.4716 11.802L1.09659 0.843652L1.08652 0.833252ZM0 2.99989C0 2.58859 0.0931126 2.20126 0.25389 1.85406L11.5781 12.7707C12.3735 13.5367 13.6264 13.5368 14.4219 12.7707L25.7461 1.85406C25.9069 2.20126 26 2.58859 26 2.99989V15.6666C26 17.1439 24.8404 18.3332 23.4 18.3332H2.6C1.1596 18.3332 0 17.1439 0 15.6666V2.99989Z" fill="white"/>
</svg>
