<svg width="24" height="22" viewBox="0 0 24 22" fill="none" xmlns="http://www.w3.org/2000/svg">
<path fill-rule="evenodd" clip-rule="evenodd" d="M13.0833 0.166748V4.50008H21.75V6.66675H19.1018L23.9167 15.3334V16.4167C23.9167 19.4083 21.4915 21.8334 18.5 21.8334C15.5085 21.8334 13.0833 19.4083 13.0833 16.4167V15.3334V15.3334L17.8981 6.66675H6.10185L10.9167 15.3334V15.3334V16.4167C10.9167 19.4083 8.49154 21.8334 5.5 21.8334C2.50845 21.8334 0.0833282 19.4083 0.0833282 16.4167V15.3334V15.3334L4.89814 6.66675H2.24999V4.50008H10.9167V0.166748H13.0833ZM18.5 10.0449L21.4381 15.3334H15.5619L18.5 10.0449ZM2.56191 15.3334H8.43808L5.5 10.0449L2.56191 15.3334Z" fill="white"/>
</svg>
