<svg width="139" height="26" viewBox="0 0 139 26" fill="none" xmlns="http://www.w3.org/2000/svg">
<path fill-rule="evenodd" clip-rule="evenodd" d="M18.0301 1.18872C19.3207 1.18872 20.0501 2.04621 20.0501 3.23564V17.3981C20.0501 18.3939 19.3207 19.1131 18.2826 19.1131C17.2726 19.1131 16.5431 18.3939 16.5431 17.3981V6.91455L12.3628 13.4979C11.8297 14.3277 11.2966 14.6043 10.511 14.6043C9.75353 14.6043 9.19241 14.3277 8.65934 13.4979L4.50702 6.96987V17.3981C4.50702 18.3939 3.77756 19.1131 2.73948 19.1131C1.72946 19.1131 1 18.3939 1 17.3981V3.48459C1 2.07387 1.84169 1.18872 3.32866 1.18872C4.6473 1.18872 5.32065 1.88025 6.13428 3.15265L10.7355 10.5658L15.7014 2.62709C16.2626 1.74194 16.8517 1.18872 18.0301 1.18872ZM22.8921 12.3914C22.8921 8.54655 26.0063 5.42086 29.8781 5.42086C33.7779 5.42086 36.8921 8.54655 36.8921 12.3914C36.8921 16.264 33.7779 19.3897 29.8781 19.3897C26.0063 19.3897 22.8921 16.264 22.8921 12.3914ZM33.4412 12.3914C33.4412 10.2615 31.9542 8.57421 29.9061 8.57421C27.83 8.57421 26.3149 10.2615 26.3149 12.3914C26.3149 14.5213 27.83 16.2363 29.9061 16.2363C31.9542 16.2363 33.4412 14.5213 33.4412 12.3914ZM46.7761 5.42086C49.8904 5.42086 51.9104 7.55075 51.9104 11.0084V17.4257C51.9104 18.4215 51.209 19.1131 50.199 19.1131C49.189 19.1131 48.4595 18.4215 48.4595 17.4257V11.5063C48.4595 9.70831 47.3934 8.57421 45.7381 8.57421C44.0547 8.57421 43.0166 9.70831 43.0166 11.5063V17.4257C43.0166 18.4215 42.3152 19.1131 41.3052 19.1131C40.2952 19.1131 39.5938 18.4215 39.5938 17.4257V7.38479C39.5938 6.38899 40.2952 5.69747 41.2771 5.69747C42.231 5.69747 42.8763 6.25069 42.9886 7.10818C43.8302 6.0294 45.1489 5.42086 46.7761 5.42086ZM67.9949 11.285C67.9949 12.4744 67.2935 13.2489 65.9748 13.2489H58.0069C58.3435 15.1022 59.7744 16.4299 61.8225 16.4299C63.8425 16.4299 64.572 15.4618 65.5259 15.4618C66.3395 15.4618 66.9007 15.9597 66.9007 16.7619C66.9007 18.2556 64.6281 19.3897 61.7103 19.3897C57.5299 19.3897 54.4998 16.264 54.4998 12.3914C54.4998 8.54655 57.2774 5.42086 61.4297 5.42086C65.6381 5.42086 67.9949 8.43591 67.9949 11.285ZM61.3175 8.26994C59.6341 8.26994 58.4558 9.4317 58.063 11.119H64.544C64.2073 9.26574 62.9448 8.26994 61.3175 8.26994ZM80.5162 5.66981C81.6384 5.66981 82.452 6.49964 81.919 7.93801L77.0653 20.7174C75.9991 23.5941 74.3158 24.8112 72.0713 24.8112C70.2196 24.8112 68.5923 23.9537 68.5923 22.626C68.5923 21.9068 69.1254 21.2153 70.0512 21.2153C70.8087 21.2153 71.3418 21.6579 72.2677 21.6579C73.1374 21.6579 73.6705 21.077 74.2316 19.5556L74.3438 19.2237L69.1815 8.1593C68.4801 6.6656 69.3779 5.66981 70.6404 5.66981C71.7065 5.66981 72.0713 6.33367 72.5202 7.32947L75.8869 14.9916L78.7206 7.24648C79.0853 6.19536 79.5623 5.66981 80.5162 5.66981Z" fill="#9EDC15" stroke="#9EDC15" stroke-width="0.66"/>
<path fill-rule="evenodd" clip-rule="evenodd" d="M100.332 5.42084C103.446 5.42084 105.494 7.46775 105.494 11.0084V17.4257C105.494 18.4215 104.765 19.113 103.783 19.113C102.773 19.113 102.043 18.4215 102.043 17.4257V11.5063C102.043 9.7083 101.033 8.57419 99.4062 8.57419C97.779 8.57419 96.7689 9.7083 96.7689 11.5063V17.4257C96.7689 18.4215 96.0675 19.113 95.0575 19.113C94.0475 19.113 93.318 18.4215 93.318 17.4257V11.5063C93.318 9.7083 92.308 8.57419 90.6807 8.57419C89.0535 8.57419 88.0435 9.7083 88.0435 11.5063V17.4257C88.0435 18.4215 87.3421 19.113 86.332 19.113C85.322 19.113 84.6206 18.4215 84.6206 17.4257V7.38477C84.6206 6.38897 85.322 5.69745 86.304 5.69745C87.2859 5.69745 87.9593 6.30599 88.0435 7.2188C88.8571 6.11236 90.1477 5.42084 91.7469 5.42084C93.7108 5.42084 95.1978 6.27833 96.0395 7.82735C96.825 6.52728 98.1998 5.42084 100.332 5.42084Z" fill="#4C4C4C" stroke="#4C4C4C" stroke-width="0.66"/>
<path fill-rule="evenodd" clip-rule="evenodd" d="M120.372 5.69745C121.382 5.69745 122.084 6.38897 122.084 7.38477V17.4257C122.084 18.4215 121.382 19.113 120.372 19.113C119.391 19.113 118.689 18.4768 118.633 17.564C117.679 18.6981 116.304 19.3897 114.537 19.3897C110.974 19.3897 108.084 16.5406 108.084 12.3914C108.084 8.40823 110.805 5.42084 114.537 5.42084C116.304 5.42084 117.679 6.05704 118.633 7.16348C118.745 6.27833 119.419 5.69745 120.372 5.69745ZM115.098 16.2363C117.146 16.2363 118.633 14.5213 118.633 12.3914C118.633 10.2615 117.146 8.57419 115.098 8.57419C113.022 8.57419 111.507 10.2615 111.507 12.3914C111.507 14.5213 113.022 16.2363 115.098 16.2363Z" fill="#4C4C4C" stroke="#4C4C4C" stroke-width="0.66"/>
<path fill-rule="evenodd" clip-rule="evenodd" d="M132.866 5.42084C135.98 5.42084 138 7.55074 138 11.0084V17.4257C138 18.4215 137.299 19.113 136.289 19.113C135.279 19.113 134.549 18.4215 134.549 17.4257V11.5063C134.549 9.7083 133.483 8.57419 131.828 8.57419C130.144 8.57419 129.106 9.7083 129.106 11.5063V17.4257C129.106 18.4215 128.405 19.113 127.395 19.113C126.385 19.113 125.683 18.4215 125.683 17.4257V7.38477C125.683 6.38897 126.385 5.69745 127.367 5.69745C128.321 5.69745 128.966 6.25067 129.078 7.10816C129.92 6.02938 131.238 5.42084 132.866 5.42084Z" fill="#4C4C4C" stroke="#4C4C4C" stroke-width="0.66"/>
</svg>
