<svg width="21" height="25" viewBox="0 0 21 25" fill="none" xmlns="http://www.w3.org/2000/svg">
<path d="M0.858507 6.80644C0.998979 6.3011 1.07446 5.78201 1.25132 5.29811C1.76633 3.78821 2.73366 2.59363 4.05972 1.70827C4.42894 1.48462 4.75396 1.21045 5.09457 0.994466C5.8824 0.502753 6.64674 0.609744 7.23679 1.32467C7.50972 1.65687 7.79044 2.01816 7.99316 2.43153C8.39861 3.25828 8.80405 4.08502 9.15229 4.9271C9.31862 5.31904 9.37835 5.77073 9.40168 6.20099C9.44054 7.03242 9.02966 7.67257 8.34844 8.10454C7.88042 8.41702 7.41239 8.7295 6.94437 9.04199C6.23455 9.48162 5.96667 10.0834 6.06273 10.8996C6.14578 11.7815 6.50704 12.5577 6.92549 13.3186C7.71041 14.7608 8.65134 16.0989 9.76128 17.2669C10.276 17.8149 10.8323 18.2895 11.542 18.5358C12.1581 18.776 12.7379 18.6519 13.2397 18.2368C13.7207 17.8585 14.2018 17.4801 14.6906 17.1309C15.598 16.5136 16.4898 16.5241 17.3944 17.1547C17.8104 17.4486 18.1691 17.7578 18.507 18.1038C19.1023 18.7238 19.6403 19.3591 20.1862 20.0235C20.3707 20.2546 20.4981 20.5011 20.6333 20.7767C20.9503 21.5024 20.8202 22.1609 20.2404 22.628C19.4265 23.2514 18.6283 23.933 17.6949 24.339C16.5196 24.8722 15.2795 25.0486 13.9822 24.8973C12.1728 24.665 10.5818 23.8753 9.14944 22.7625C7.87828 21.7936 6.80473 20.647 5.79359 19.3901C4.221 17.4107 2.86162 15.3117 1.87146 12.9892C1.27372 11.5592 0.847584 10.0832 0.772434 8.54437C0.74389 8.20904 0.772544 7.85839 0.751794 7.55216C0.796038 7.25969 0.827273 7.03306 0.858507 6.80644Z" fill="white"/>
</svg>
