<svg width="21" height="25" viewBox="0 0 21 25" fill="none" xmlns="http://www.w3.org/2000/svg">
<path d="M0.858507 6.80656C0.998979 6.30123 1.07446 5.78213 1.25132 5.29823C1.76633 3.78833 2.73366 2.59376 4.05972 1.70839C4.42894 1.48474 4.75396 1.21057 5.09457 0.994588C5.8824 0.502875 6.64674 0.609866 7.23679 1.32479C7.50972 1.65699 7.79044 2.01828 7.99316 2.43165C8.39861 3.2584 8.80405 4.08515 9.15229 4.92722C9.31862 5.31916 9.37835 5.77085 9.40168 6.20111C9.44054 7.03254 9.02966 7.67269 8.34844 8.10466C7.88042 8.41714 7.41239 8.72963 6.94437 9.04211C6.23455 9.48174 5.96667 10.0836 6.06273 10.8997C6.14578 11.7816 6.50704 12.5579 6.92549 13.3188C7.71041 14.7609 8.65134 16.099 9.76128 17.267C10.276 17.815 10.8323 18.2896 11.542 18.5359C12.1581 18.7762 12.7379 18.652 13.2397 18.2369C13.7207 17.8586 14.2018 17.4803 14.6906 17.131C15.598 16.5137 16.4898 16.5242 17.3944 17.1548C17.8104 17.4487 18.1691 17.7579 18.507 18.1039C19.1023 18.7239 19.6403 19.3592 20.1862 20.0236C20.3707 20.2548 20.4981 20.5013 20.6333 20.7768C20.9503 21.5025 20.8202 22.161 20.2404 22.6282C19.4265 23.2516 18.6283 23.9331 17.6949 24.3391C16.5196 24.8723 15.2795 25.0487 13.9822 24.8974C12.1728 24.6652 10.5818 23.8755 9.14944 22.7626C7.87828 21.7937 6.80473 20.6471 5.79359 19.3902C4.221 17.4108 2.86162 15.3119 1.87146 12.9893C1.27372 11.5593 0.847584 10.0833 0.772434 8.54449C0.74389 8.20917 0.772544 7.85851 0.751794 7.55228C0.796038 7.25981 0.827273 7.03318 0.858507 6.80656Z" fill=""/>
</svg>
