<svg width="18" height="22" viewBox="0 0 18 22" fill="none" xmlns="http://www.w3.org/2000/svg">
<path fill-rule="evenodd" clip-rule="evenodd" d="M0.946797 0.0695696C0.946797 0.107297 3.21229 2.38933 5.94581 5.17688L10.9194 10.2582L12.1633 8.99163L13.4027 7.72981L12.999 7.46542C12.7839 7.32715 10.6425 5.9397 8.24034 4.38224C1.78264 0.19542 1.88255 0.247264 1.61711 0.144354C1.32911 0.0326268 1.216 0.00798763 0.946797 0.0695696ZM0.0844286 11.0626V21.2896L5.10255 16.1805L10.1089 11.0833L5.09083 5.9565L0.0813789 0.838526L0.0844286 11.0626ZM13.0302 9.63191C12.3323 10.345 11.666 11.0021 11.666 11.0521C11.666 11.1022 14.3159 13.7283 14.3159 13.7283C16.2799 12.4171 17.4387 11.8148 17.4387 11.0521C17.4387 10.2894 16.9521 10.039 15.8074 9.29037C15.0041 8.76506 14.3266 8.32536 14.3135 8.32536C14.3003 8.32536 13.7281 8.9187 13.0302 9.63191ZM0.948589 21.8716C0.948589 21.8716 1.30513 22.0718 1.83995 21.7807C2.04317 21.6701 13.2681 14.4549 13.3419 14.3863C13.3818 14.3492 10.8555 11.846 10.8555 11.846C10.8555 11.846 9.99583 12.6898 0.948589 21.8716Z" fill="white"/>
</svg>
