<svg width="30" height="27" viewBox="0 0 61 55" fill="none" xmlns="http://www.w3.org/2000/svg">
<path fill-rule="evenodd" clip-rule="evenodd" d="M20.7778 0.818136C22.7548 0.325336 24.7654 0.0591957 26.7664 0.00879571C32.7695 -0.143244 38.7133 1.67858 43.6535 5.2588C44.3497 5.66448 44.7526 6.42864 44.6919 7.22827C44.6313 8.0279 44.1176 8.72342 43.3681 9.02083C42.6185 9.31824 41.764 9.16564 41.1656 8.62752C35.5899 4.58687 28.5064 3.21816 21.8126 4.88696C9.33373 7.9978 1.7724 20.5323 4.90349 32.9306C8.03463 45.329 20.6505 52.8197 33.1293 49.7088C45.6082 46.5978 53.1695 34.0852 50.0384 21.6869C49.7545 20.9328 49.9296 20.0837 50.4891 19.5012C51.0486 18.9187 51.894 18.7053 52.6655 18.9518C53.437 19.1984 53.9987 19.8614 54.1116 20.6588C57.7988 35.2587 48.8589 50.1142 34.1641 53.7775C19.4694 57.4408 4.51745 48.5587 0.830339 33.9588C-2.85682 19.3589 6.08306 4.48152 20.7778 0.818136ZM56.9518 2.04314C57.3222 1.64119 57.8354 1.39803 58.3829 1.36505C59.2595 1.31632 60.0751 1.81101 60.4322 2.60791C60.7892 3.40482 60.6132 4.33804 59.9901 4.95255C56.1111 8.98486 50.8784 14.6162 45.6302 20.2643C40.3496 25.9472 35.0532 31.6472 31.1038 35.7525C30.3156 36.5643 29.0228 36.6126 28.1755 35.8619L16.1982 25.3619C15.6319 24.8618 15.3771 24.0994 15.5299 23.362C15.6827 22.6246 16.2199 22.0242 16.939 21.787C17.6582 21.5498 18.4501 21.7118 19.0164 22.2119L29.4525 31.3556C33.1692 27.4603 37.8281 22.454 42.5001 17.4336C47.7371 11.8061 52.9905 6.16093 56.9518 2.04314Z" fill="#9EDC15"/>
</svg>
