<?xml version="1.0" standalone="no"?>
<!DOCTYPE svg PUBLIC "-//W3C//DTD SVG 1.0//EN"  "http://www.w3.org/TR/2001/REC-SVG-20010904/DTD/svg10.dtd">
<svg xmlns="http://www.w3.org/2000/svg" id="body_1" width="53" height="40">

<g transform="matrix(0.078125 0 0 0.078125 4.000001 -0)">
    <path d="M492.4 220.8C 483.5 220.8 473.69998 227.5 473.69998 243.5L473.69998 243.5L510.4 243.5C 510.4 227.5 501.1 220.8 492.4 220.8zM375 223.4C 366.8 223.4 361.7 226.29999 358 230.4L358 230.4L358.2 283.19998C 361.7 286.9 366.7 289.9 375 289.9C 388.1 289.9 396.9 275.6 396.9 256.5C 396.9 237.9 387.9 223.3 375 223.4zM528 32L48 32C 21.5 32 0 53.5 0 80L0 80L0 432C 0 458.5 21.5 480 48 480L48 480L528 480C 554.5 480 576 458.5 576 432L576 432L576 80C 576 53.5 554.5 32 528 32zM122.2 281.1C 122.2 306.7 101.899994 321.2 72.299995 321.4C 60.099995 321.4 46.699997 319 33.499996 313.3L33.499996 313.3L33.499996 279.4C 45.499996 285.8 60.6 290.69998 72.399994 290.69998C 80.299995 290.69998 85.99999 288.59998 85.99999 281.99997C 85.99999 264.99997 31.999992 271.39996 31.999992 232.09998C 31.999992 206.89998 51.199993 191.89998 79.99999 191.89998C 91.799995 191.89998 103.49999 193.69998 115.29999 198.39998L115.29999 198.39998L115.29999 231.79999C 104.499985 225.99998 90.79999 222.69998 79.999985 222.69998C 72.499985 222.69998 67.89999 224.89998 67.89999 230.39998C 67.89999 246.39998 122.19998 238.79997 122.19998 281.09998zM191 224.5L164 224.5L164 275C 164 295.9 186.5 289.4 191 287.6L191 287.6L191 316.5C 186.3 319.1 177.7 321.2 166.1 321.2C 145 321.2 129.20001 305.7 129.20001 284.7L129.20001 284.7L129.40001 170.80002L164.1 163.40002L164.1 194.20003L191 194.20003zM265 226.9C 260.5 225.4 246.3 223.29999 237.9 234.29999L237.9 234.29999L237.9 318.69998L202.4 318.69998L202.4 194.2L233.09999 194.2L235.29999 204.7C 243.59999 189.4 260.19998 192.5 264.9 194.2L264.9 194.2L265 194.2zM309.1 318.7L273.4 318.7L273.4 194.2L309.1 194.2zM309.1 175.80002L273.4 183.40002L273.4 154.50003L309.1 146.90002zM383.2 321.30002C 370.80002 321.30002 363.2 316.00003 358.1 312.30002L358.1 312.30002L358 352.50003L322.5 360.00003L322.5 194.2L353.8 194.2L355.59998 203C 360.49997 198.5 369.49997 191.9 383.39996 191.9C 408.29996 191.9 431.79996 214.4 431.79996 255.7C 431.79996 300.8 408.59995 321.2 383.19995 321.3zM543.6 269.80002L474.09998 269.80002C 475.69998 286.40002 487.89996 291.30002 501.69998 291.30002C 515.8 291.30002 526.89996 288.30002 536.6 283.40002L536.6 283.40002L536.6 312C 526.89996 317.3 514.19995 321.2 497.19998 321.2C 462.59998 321.2 438.4 299.5 438.4 256.7C 438.4 220.50002 458.9 191.80002 492.69998 191.80002C 526.39996 191.80002 544 220.50002 544 256.90002C 544 260.40002 543.7 267.80002 543.6 269.80002z" stroke="none" fill="#000000" />
</g>
</svg>