<svg width="22" height="18" viewBox="0 0 22 18" fill="none" xmlns="http://www.w3.org/2000/svg">
<path d="M19.7386 4.51821C19.7525 4.71363 19.7525 4.9091 19.7525 5.10452C19.7525 11.0651 15.2157 17.9332 6.92386 17.9332C4.36928 17.9332 1.9962 17.1933 0 15.9091C0.362957 15.9509 0.711906 15.9649 1.08883 15.9649C3.19666 15.9649 5.13704 15.253 6.68654 14.0385C4.7043 13.9966 3.04313 12.6984 2.47079 10.9116C2.75 10.9535 3.02917 10.9814 3.32234 10.9814C3.72715 10.9814 4.132 10.9255 4.50888 10.8279C2.4429 10.4091 0.893363 8.59435 0.893363 6.40273V6.34692C1.49359 6.68194 2.19162 6.89133 2.93141 6.91922C1.71695 6.10956 0.921293 4.7276 0.921293 3.16413C0.921293 2.32659 1.1446 1.55882 1.53549 0.888768C3.75504 3.6248 7.09135 5.41157 10.8324 5.60704C10.7626 5.27201 10.7207 4.92306 10.7207 4.57407C10.7207 2.08927 12.7309 0.0651855 15.2296 0.0651855C16.5278 0.0651855 17.7004 0.6096 18.524 1.48904C19.543 1.29362 20.5202 0.916697 21.3857 0.400213C21.0506 1.44719 20.3387 2.32663 19.4035 2.88497C20.3109 2.7873 21.1903 2.53597 21.9999 2.18703C21.3858 3.08039 20.618 3.87604 19.7386 4.51821Z" fill="white"/>
</svg>
