<svg width="24" height="24" viewBox="0 0 24 24" fill="none" xmlns="http://www.w3.org/2000/svg">
<path fill-rule="evenodd" clip-rule="evenodd" d="M17.46 14.3341C17.1635 14.1868 15.7058 13.4745 15.434 13.3762C15.1622 13.2779 14.9645 13.2288 14.7668 13.5235C14.5692 13.8183 14.001 14.4815 13.8279 14.6781C13.655 14.8745 13.482 14.8992 13.1856 14.7518C12.889 14.6044 11.9336 14.2935 10.8011 13.2903C9.91956 12.5096 9.3245 11.5454 9.15152 11.2505C8.9786 10.9558 9.13314 10.7965 9.28159 10.6496C9.41497 10.5177 9.5781 10.3057 9.72633 10.1338C9.87461 9.96187 9.924 9.83898 10.0228 9.64263C10.1217 9.44605 10.0723 9.27411 9.99814 9.12675C9.924 8.97939 9.33098 7.53002 9.08392 6.94041C8.84324 6.36639 8.59879 6.44414 8.41677 6.43499C8.24402 6.42646 8.04612 6.42465 7.84851 6.42465C7.65083 6.42465 7.32958 6.49833 7.05782 6.79305C6.78601 7.08789 6.02002 7.80022 6.02002 9.24948C6.02002 10.6988 7.08252 12.0988 7.2308 12.2953C7.37902 12.4919 9.32159 15.4659 12.2961 16.7414C13.0035 17.0447 13.5558 17.2259 13.9864 17.3616C14.6967 17.5858 15.3431 17.5541 15.854 17.4783C16.4237 17.3938 17.6083 16.766 17.8554 16.0782C18.1024 15.3904 18.1024 14.8009 18.0283 14.6781C17.9542 14.5553 17.7565 14.4815 17.46 14.3341ZM20.4442 3.53923C18.2038 1.31181 15.2242 0.0846171 12.0497 0.083374C5.50888 0.083374 0.185411 5.36932 0.182794 11.8665C0.18194 13.9435 0.728353 15.9707 1.76684 17.7579L0.0833321 23.8642L6.3741 22.2255C8.1074 23.1643 10.0589 23.6592 12.045 23.6599H12.0498H12.0499C18.5901 23.6599 23.914 18.3733 23.9167 11.876C23.9179 8.72731 22.6847 5.76659 20.4442 3.53923Z" fill="#4C4C4C"/>
</svg>
