<svg width="20" height="17" viewBox="0 0 20 17" fill="none" xmlns="http://www.w3.org/2000/svg">
<path fill-rule="evenodd" clip-rule="evenodd" d="M12.25 1C12.25 0.585786 12.5858 0.25 13 0.25C15.6234 0.25 17.75 2.37665 17.75 5C17.75 7.62335 15.6234 9.75 13 9.75C12.5858 9.75 12.25 9.41421 12.25 9C12.25 8.58579 12.5858 8.25 13 8.25C14.7949 8.25 16.25 6.79493 16.25 5C16.25 3.20507 14.7949 1.75 13 1.75C12.5858 1.75 12.25 1.41421 12.25 1ZM1.75 16C1.75 15.2242 2.22169 14.4301 3.17338 13.7956C4.11984 13.1646 5.47056 12.75 7 12.75C8.52944 12.75 9.88016 13.1646 10.8266 13.7956C11.7783 14.4301 12.25 15.2242 12.25 16C12.25 16.4142 12.5858 16.75 13 16.75C13.4142 16.75 13.75 16.4142 13.75 16C13.75 14.5666 12.8785 13.3608 11.6587 12.5475C10.4335 11.7308 8.78427 11.25 7 11.25C5.21573 11.25 3.56645 11.7308 2.34133 12.5475C1.12146 13.3608 0.25 14.5666 0.25 16C0.25 16.4142 0.585786 16.75 1 16.75C1.41421 16.75 1.75 16.4142 1.75 16ZM15.1719 11.4976C14.7688 11.4026 14.3649 11.6524 14.2699 12.0556C14.1749 12.4587 14.4247 12.8626 14.8279 12.9576C17.0282 13.4761 18.2499 14.7826 18.2499 16C18.2499 16.4142 18.5857 16.75 18.9999 16.75C19.4141 16.75 19.7499 16.4142 19.7499 16C19.7499 13.7341 17.6324 12.0773 15.1719 11.4976ZM3.75 5C3.75 3.20507 5.20507 1.75 7 1.75C8.79493 1.75 10.25 3.20507 10.25 5C10.25 6.79493 8.79493 8.25 7 8.25C5.20507 8.25 3.75 6.79493 3.75 5ZM7 0.25C4.37665 0.25 2.25 2.37665 2.25 5C2.25 7.62335 4.37665 9.75 7 9.75C9.62335 9.75 11.75 7.62335 11.75 5C11.75 2.37665 9.62335 0.25 7 0.25Z" fill=""/>
</svg>
