<svg width="14" height="14" viewBox="0 0 14 14" fill="none" xmlns="http://www.w3.org/2000/svg">
<path fill-rule="evenodd" clip-rule="evenodd" d="M13.0165 1.28033C13.3094 0.987437 13.3094 0.512563 13.0165 0.21967C12.7236 -0.0732233 12.2487 -0.0732233 11.9558 0.21967L6.61808 5.55742L1.28033 0.21967C0.987437 -0.0732233 0.512563 -0.0732233 0.21967 0.21967C-0.0732233 0.512563 -0.0732233 0.987437 0.21967 1.28033L5.55742 6.61808L0.21967 11.9558C-0.0732233 12.2487 -0.0732233 12.7236 0.21967 13.0165C0.512563 13.3094 0.987437 13.3094 1.28033 13.0165L6.61808 7.67874L11.9558 13.0165C12.2487 13.3094 12.7236 13.3094 13.0165 13.0165C13.3094 12.7236 13.3094 12.2487 13.0165 11.9558L7.67874 6.61808L13.0165 1.28033Z" fill="#4C4C4C"/>
</svg>
