<svg width="18" height="19" viewBox="0 0 18 19" fill="none" xmlns="http://www.w3.org/2000/svg">
<path fill-rule="evenodd" clip-rule="evenodd" d="M7.84762 1.01185C8.50741 0.434527 9.49259 0.434528 10.1524 1.01185L17.1524 7.13685C17.5322 7.46915 17.75 7.94922 17.75 8.45386V17.0001C17.75 17.9666 16.9665 18.7501 16 18.7501H12C11.0335 18.7501 10.25 17.9666 10.25 17.0001V13.0001C10.25 12.862 10.1381 12.7501 10 12.7501H8C7.86193 12.7501 7.75 12.862 7.75 13.0001V17.0001C7.75 17.9666 6.9665 18.7501 6 18.7501H2C1.0335 18.7501 0.25 17.9666 0.25 17.0001V8.45386C0.25 7.94922 0.467841 7.46915 0.847617 7.13685L7.84762 1.01185ZM9.16463 2.14071C9.07037 2.05824 8.92963 2.05824 8.83537 2.14071L1.83537 8.26571C1.78112 8.31319 1.75 8.38177 1.75 8.45386V17.0001C1.75 17.1382 1.86193 17.2501 2 17.2501H6C6.13807 17.2501 6.25 17.1382 6.25 17.0001V13.0001C6.25 12.0336 7.0335 11.2501 8 11.2501H10C10.9665 11.2501 11.75 12.0336 11.75 13.0001V17.0001C11.75 17.1382 11.8619 17.2501 12 17.2501H16C16.1381 17.2501 16.25 17.1382 16.25 17.0001V8.45386C16.25 8.38177 16.2189 8.31319 16.1646 8.26571L9.16463 2.14071Z" fill="#4C4C4C"/>
</svg>
