<svg width="20" height="20" viewBox="0 0 20 20" fill="none" xmlns="http://www.w3.org/2000/svg">
<path fill-rule="evenodd" clip-rule="evenodd" d="M7.25016 19.8543H12.7502C17.7277 19.8543 19.8543 17.7277 19.8543 12.7502V7.25016C19.8543 2.27266 17.7277 0.145996 12.7502 0.145996H7.25016C2.27266 0.145996 0.145996 2.27266 0.145996 7.25016V10.8052C0.139739 10.8416 0.136475 10.8788 0.136475 10.9167C0.136475 10.9552 0.139737 10.993 0.145996 11.0298V12.7502C0.145996 17.7277 2.27266 19.8543 7.25016 19.8543ZM1.521 11.6042V12.7502C1.521 16.976 3.02433 18.4793 7.25016 18.4793H12.7502C16.976 18.4793 18.4793 16.976 18.4793 12.7502V11.6042H15.7106C15.2706 11.6042 14.8765 11.8426 14.684 12.2367L13.8681 13.8776C13.4373 14.7392 12.5756 15.2709 11.6131 15.2709H8.37731C7.36897 15.2709 6.57147 14.7759 6.12231 13.8776L5.30647 12.2367C5.11397 11.8426 4.71981 11.6042 4.27981 11.6042H1.521ZM1.521 10.2292H4.27981C5.24231 10.2292 6.10397 10.7609 6.53481 11.6226L7.35064 13.2634C7.56147 13.6851 7.90064 13.8959 8.37731 13.8959H11.6131C12.0531 13.8959 12.4473 13.6576 12.6398 13.2634L13.4556 11.6226C13.8865 10.7609 14.7481 10.2292 15.7106 10.2292H18.4793V7.25016C18.4793 3.02433 16.976 1.521 12.7502 1.521H7.25016C3.02433 1.521 1.521 3.02433 1.521 7.25016V10.2292ZM11.5309 6.10425H8.4784C8.09341 6.10425 7.78174 5.79258 7.78174 5.41675C7.78174 5.04091 8.0934 4.72925 8.46924 4.72925H11.5217C11.8976 4.72925 12.2092 5.04091 12.2092 5.41675C12.2092 5.79258 11.9067 6.10425 11.5309 6.10425ZM7.7085 8.85425H12.2918C12.6677 8.85425 12.9793 8.54258 12.9793 8.16675C12.9793 7.79091 12.6677 7.47925 12.2918 7.47925H7.7085C7.33266 7.47925 7.021 7.79091 7.021 8.16675C7.021 8.54258 7.33266 8.85425 7.7085 8.85425Z" fill=""/>
</svg>
