<svg width="85" height="85" viewBox="0 0 85 85" fill="none" xmlns="http://www.w3.org/2000/svg">
<rect width="85" height="85" fill="#F18D8D"/>
<rect width="85" height="85" fill="url(#paint0_linear_1615_1972)"/>
<path fill-rule="evenodd" clip-rule="evenodd" d="M55.7739 20.7812C58.4864 20.7812 60.0195 22.6277 60.0195 25.189V55.6859C60.0195 57.8302 58.4864 59.3789 56.3046 59.3789C54.1817 59.3789 52.6486 57.8302 52.6486 55.6859V33.1111L43.8624 47.2874C42.742 49.0743 41.6216 49.6699 39.9705 49.6699C38.3784 49.6699 37.199 49.0743 36.0786 47.2874L27.3514 33.2302V55.6859C27.3514 57.8302 25.8183 59.3789 23.6365 59.3789C21.5136 59.3789 19.9805 57.8302 19.9805 55.6859V25.7251C19.9805 22.6873 21.7495 20.7812 24.8748 20.7812C27.6463 20.7812 29.0615 22.2704 30.7716 25.0103L40.4423 40.9735L50.8795 23.8786C52.0589 21.9725 53.2972 20.7812 55.7739 20.7812Z" fill="white" stroke="white" stroke-width="0.043471"/>
<defs>
<linearGradient id="paint0_linear_1615_1972" x1="-14.1222" y1="0" x2="-14.1222" y2="108.244" gradientUnits="userSpaceOnUse">
<stop stop-color="#9EDC15"/>
<stop offset="1" stop-color="#60AD16"/>
</linearGradient>
</defs>
</svg>
