<svg width="20" height="20" viewBox="0 0 20 20" fill="none" xmlns="http://www.w3.org/2000/svg">
<path fill-rule="evenodd" clip-rule="evenodd" d="M10.5706 17.7143L13.3528 19.3724C14.1437 19.8408 14.7765 20 15.2696 20C15.8 20 16.1722 19.8126 16.4049 19.644C16.8329 19.3255 17.4935 18.5105 17.0655 16.637L16.4049 13.7611C16.3397 13.452 16.4793 12.9461 16.7026 12.7213L19.0103 10.3888C20.1548 9.22717 20.0617 8.23419 19.9128 7.74707C19.764 7.25995 19.2615 6.39813 17.6517 6.12646L14.6834 5.62998C14.4043 5.58314 14.0042 5.28337 13.8739 5.03044L12.2362 1.73302C11.4918 0.224824 10.5148 0 10.003 0C9.49123 0 8.5142 0.224824 7.7698 1.73302L6.12281 5.03981C6.00184 5.29274 5.60173 5.59251 5.32258 5.63934L2.35428 6.13583C0.753816 6.40749 0.251345 7.26932 0.0931598 7.75644C-0.0650254 8.24356 -0.158076 9.23653 0.995746 10.3981L3.30339 12.7213C3.52671 12.9461 3.67559 13.4614 3.60115 13.7611L2.94049 16.637C2.50316 18.5105 3.17312 19.3255 3.60115 19.644C4.03849 19.9625 5.00621 20.356 6.6532 19.3724L9.4447 17.7143C9.72385 17.5457 10.2822 17.5457 10.5706 17.7143ZM8.67548 16.4265C9.13659 16.1502 9.64926 16.0878 10.0042 16.0878C10.3649 16.0878 10.8709 16.1524 11.3276 16.4193L11.3385 16.4257L14.1171 18.0817C14.1178 18.0821 14.1184 18.0825 14.119 18.0828C14.7379 18.449 15.1081 18.5 15.2696 18.5C15.3539 18.5 15.4078 18.4858 15.4403 18.4741C15.4708 18.4631 15.4957 18.4494 15.5161 18.4354C15.5371 18.4184 15.5932 18.3648 15.6385 18.2335C15.6929 18.0763 15.7691 17.6978 15.6033 16.9716C15.6033 16.9714 15.6033 16.9718 15.6033 16.9716L14.9399 14.0837L14.9371 14.0704C14.8373 13.5968 14.9085 13.1324 15.0022 12.8012C15.0948 12.4742 15.2803 12.0256 15.6368 11.6659C15.6373 11.6653 15.6379 11.6648 15.6384 11.6642L17.9418 9.33598C17.9422 9.33558 17.9426 9.33518 17.943 9.33478C18.3436 8.92783 18.4502 8.63363 18.4824 8.48889C18.5159 8.33883 18.4939 8.23653 18.4783 8.1855C18.4696 8.15693 18.4372 8.07023 18.3277 7.97188C18.2225 7.87734 17.9677 7.70114 17.4031 7.60571C17.4028 7.60566 17.4034 7.60577 17.4031 7.60571L14.436 7.10942C13.9661 7.03059 13.5724 6.79307 13.3279 6.61128C13.0803 6.42721 12.7508 6.12586 12.5404 5.71727L12.5353 5.70751L10.8911 2.39692C10.6243 1.8563 10.3734 1.65598 10.2513 1.58156C10.1266 1.50547 10.036 1.5 10.003 1.5C9.96996 1.5 9.87943 1.50547 9.75466 1.58156C9.63263 1.65598 9.38171 1.8563 9.11488 2.39691L9.11249 2.40176L7.46905 5.70141C7.26105 6.12755 6.92426 6.43537 6.6814 6.61732C6.4345 6.8023 6.04083 7.0398 5.57079 7.11867L2.6053 7.61468C2.60476 7.61477 2.60422 7.61486 2.60368 7.61495C2.04614 7.70985 1.79244 7.88495 1.68524 7.98124C1.57349 8.08162 1.53441 8.17482 1.51982 8.21973C1.5072 8.25859 1.4842 8.35292 1.51657 8.49826C1.54784 8.63862 1.65385 8.93218 2.05996 9.34103L4.3676 11.6642C4.72219 12.0212 4.91099 12.4695 5.00564 12.799C5.09772 13.1196 5.18068 13.6058 5.06107 14.1057L4.40123 16.978C4.23237 17.7013 4.30925 18.0763 4.36292 18.2305C4.4095 18.3643 4.46837 18.4184 4.4908 18.4362C4.51795 18.4549 4.58437 18.4931 4.71897 18.4972C4.87416 18.5019 5.24794 18.4645 5.88409 18.0845L5.88717 18.0827L8.67548 16.4265Z" fill=""/>
</svg>
