<svg width="22" height="16" viewBox="0 0 22 16" fill="none" xmlns="http://www.w3.org/2000/svg">
<path fill-rule="evenodd" clip-rule="evenodd" d="M0.75 3C0.75 1.48122 1.98122 0.25 3.5 0.25H18.5C20.0188 0.25 21.25 1.48122 21.25 3V13C21.25 14.5188 20.0188 15.75 18.5 15.75H3.5C1.98122 15.75 0.75 14.5188 0.75 13V3ZM3.5 1.75C2.80964 1.75 2.25 2.30964 2.25 3V4.25H19.75V3C19.75 2.30964 19.1904 1.75 18.5 1.75H3.5ZM19.75 5.75H2.25V13C2.25 13.6904 2.80964 14.25 3.5 14.25H18.5C19.1904 14.25 19.75 13.6904 19.75 13V5.75ZM4.25 11C4.25 10.5858 4.58579 10.25 5 10.25H9C9.41421 10.25 9.75 10.5858 9.75 11C9.75 11.4142 9.41421 11.75 9 11.75H5C4.58579 11.75 4.25 11.4142 4.25 11Z" fill=""/>
</svg>
