<svg width="21" height="21" viewBox="0 0 21 21" fill="none" xmlns="http://www.w3.org/2000/svg">
<path fill-rule="evenodd" clip-rule="evenodd" d="M0.618566 19.6078C1.02857 20.0078 1.58857 20.2278 2.19857 20.2278C2.31857 20.2278 2.44857 20.2278 2.57857 20.1978L5.58857 19.7678C6.16857 19.6878 6.91857 19.3078 7.32857 18.8978L17.5721 8.65426C17.6005 8.62998 17.6271 8.60342 17.6517 8.57471L18.7441 7.4823C19.6541 6.5823 20.1341 5.7023 20.2241 4.8023C20.3241 3.6923 19.8341 2.5823 18.7441 1.4923C16.7541 -0.497698 14.7341 -0.497698 12.7441 1.4923L11.7048 2.53156C11.6432 2.57716 11.5894 2.63127 11.5448 2.69164L1.32857 12.9078C0.918566 13.3178 0.538566 14.0678 0.458566 14.6478L0.0285658 17.6578C-0.0814342 18.4078 0.128566 19.1178 0.618566 19.6078ZM11.8531 4.50334L2.38857 13.9678C2.19857 14.1578 1.97857 14.5978 1.93857 14.8578L1.50857 17.8678C1.46857 18.1578 1.52857 18.3978 1.67857 18.5478C1.82857 18.6978 2.06857 18.7578 2.35857 18.7178L5.36857 18.2878C5.62857 18.2478 6.07857 18.0278 6.25857 17.8378L15.7231 8.37327C14.0214 7.58579 12.6406 6.20499 11.8531 4.50334ZM16.8747 7.22174L17.6741 6.4223C18.3241 5.7723 18.6641 5.1923 18.7141 4.6523C18.7741 4.0023 18.4341 3.3123 17.6741 2.5423C16.0741 0.942302 14.9741 1.3923 13.8041 2.5523L12.9998 3.35655C13.6453 5.15072 15.0785 6.58066 16.8747 7.22174Z" fill="#4C4C4C"/>
</svg>
