<svg width="19" height="18" viewBox="0 0 19 18" fill="none" xmlns="http://www.w3.org/2000/svg">
<path fill-rule="evenodd" clip-rule="evenodd" d="M0.75002 9C0.75002 4.16751 4.66753 0.25 9.50002 0.25C14.3325 0.25 18.25 4.16751 18.25 9C18.25 13.8325 14.3325 17.75 9.50002 17.75C7.90884 17.75 6.41504 17.3246 5.12829 16.5811L1.73719 17.7115C1.46769 17.8013 1.17056 17.7312 0.96969 17.5303C0.768816 17.3295 0.698674 17.0323 0.788508 16.7628L1.91887 13.3717C1.1754 12.085 0.75002 10.5912 0.75002 9ZM9.50002 1.75C5.49596 1.75 2.25002 4.99594 2.25002 9C2.25002 10.4278 2.66201 11.7571 3.3733 12.8782C3.4941 13.0686 3.52283 13.3033 3.45152 13.5172L2.68587 15.8141L4.98282 15.0485C5.19674 14.9772 5.43139 15.0059 5.62179 15.1267C6.74288 15.838 8.07219 16.25 9.50002 16.25C13.5041 16.25 16.75 13.0041 16.75 9C16.75 4.99594 13.5041 1.75 9.50002 1.75Z" fill=""/>
</svg>
