<svg width="16" height="20" viewBox="0 0 16 20" fill="none" xmlns="http://www.w3.org/2000/svg">
<path fill-rule="evenodd" clip-rule="evenodd" d="M1.75 3.5C1.75 2.5335 2.5335 1.75 3.5 1.75H8.25V6C8.25 6.9665 9.0335 7.75 10 7.75L14.25 7.75V16.5C14.25 17.4665 13.4665 18.25 12.5 18.25H3.5C2.5335 18.25 1.75 17.4665 1.75 16.5V3.5ZM13.3987 6.25L10.0235 2.19977C9.94398 2.10432 9.85162 2.02235 9.75 1.95554V6C9.75 6.13807 9.86193 6.25 10 6.25L13.3987 6.25ZM9 0.25H9.06325C9.87939 0.25 10.6534 0.612513 11.1759 1.23949L15.1126 5.96359C15.5245 6.45781 15.75 7.08077 15.75 7.7241V16.5C15.75 18.2949 14.2949 19.75 12.5 19.75H3.5C1.70507 19.75 0.25 18.2949 0.25 16.5V3.5C0.25 1.70507 1.70507 0.25 3.5 0.25H9Z" fill=""/>
</svg>
